<?xml version="1.0" encoding="utf-8"?>
<!-- Generator: Adobe Adobe Illustrator 29.2.0, SVG Export Plug-In . SVG Version: 6.00 Build 0)  -->
<svg version="1.1" id="Layer_1" xmlns="http://www.w3.org/2000/svg" xmlns:xlink="http://www.w3.org/1999/xlink" x="0px" y="0px"
	 width="1280px" height="720px" viewBox="0 0 1280 720" style="enable-background:new 0 0 1280 720;" xml:space="preserve">
<style type="text/css">
	.st0{fill:#DDDDDD;stroke:#0000FF;stroke-miterlimit:10;}
	.st1{fill:#DDDDDD;stroke:#000000;stroke-miterlimit:10;}
	.st2{fill:#DDDDDD;stroke:#FF0000;stroke-miterlimit:10;}
</style>
<line class="st0" x1="529.49" y1="229.82" x2="679.49" y2="229.82"/>
<line class="st0" x1="454.49" y1="359.73" x2="529.49" y2="229.82"/>
<line class="st0" x1="529.49" y1="490.18" x2="454.49" y2="360.27"/>
<line class="st0" x1="529.49" y1="490.18" x2="679.49" y2="490.18"/>
<line class="st0" x1="679.49" y1="490.18" x2="754.49" y2="360.27"/>
<line class="st0" x1="754.49" y1="360.27" x2="679.49" y2="230.37"/>
<line class="st1" x1="379.44" y1="230.27" x2="379.44" y2="490.27"/>
<line class="st1" x1="830.01" y1="230.27" x2="830.01" y2="490.27"/>
<line class="st1" x1="379.44" y1="230.27" x2="604.61" y2="100.28"/>
<line class="st1" x1="830.01" y1="230.27" x2="604.84" y2="100.28"/>
<line class="st1" x1="604.61" y1="620.27" x2="379.44" y2="490.27"/>
<line class="st1" x1="604.84" y1="620.27" x2="830.01" y2="490.28"/>
<line class="st0" x1="528.91" y1="229.67" x2="454.03" y2="186.44"/>
<line class="st0" x1="453.44" y1="359.38" x2="379.31" y2="316.58"/>
<line class="st2" x1="529.49" y1="144.21" x2="529.49" y2="229.82"/>
<line class="st2" x1="679.49" y1="144.21" x2="679.49" y2="229.82"/>
<line class="st0" x1="529.49" y1="490.28" x2="529.49" y2="575.89"/>
<line class="st0" x1="679.49" y1="490.28" x2="679.49" y2="575.92"/>
<line class="st2" x1="379.44" y1="405.42" x2="454.49" y2="360.27"/>
<line class="st2" x1="454.49" y1="533.6" x2="529.49" y2="490.18"/>
<line class="st0" x1="681.88" y1="229.9" x2="755.35" y2="187.48"/>
<line class="st0" x1="754.52" y1="360.1" x2="829.98" y2="316.53"/>
<line class="st2" x1="754.49" y1="360.27" x2="830.01" y2="405.42"/>
<line class="st2" x1="679.47" y1="490.27" x2="741.61" y2="541.31"/>
</svg>
